<?xml version="1.0" encoding="utf-8"?>
<!-- Generator: Adobe Illustrator 24.0.0, SVG Export Plug-In . SVG Version: 6.00 Build 0)  -->
<svg version="1.1" id="Livello_1" xmlns="http://www.w3.org/2000/svg" xmlns:xlink="http://www.w3.org/1999/xlink" x="0px" y="0px"
	 viewBox="0 0 1464 500" style="enable-background:new 0 0 1464 500;" xml:space="preserve">
<style type="text/css">
	.st0{fill:none;}
	.st1{fill:#DA2020;}
	.st2{font-family:'Arial-BoldMT';}
	.st3{font-size:27px;}
	.st4{fill:none;stroke:#797979;stroke-width:2;stroke-linecap:round;stroke-miterlimit:10;stroke-dasharray:2,6;}
	.st5{fill:none;stroke:#797979;stroke-width:2;stroke-miterlimit:10;}
	.st6{fill:none;stroke:#797979;stroke-width:2;stroke-linecap:round;stroke-miterlimit:10;}
	.st7{font-family:'ArialMT';}
	.st8{fill:#FFFFFF;}
</style>
<image style="overflow:visible;" width="1234" height="500" xlink:href="project_schedule.png"  transform="matrix(0.9976 0 0 0.9976 -2 0)">
</image>
<g>
	<defs>
		<path id="SVGID_3_" d="M1105,307.4c220,1,220,1,220,1l16-31l-20-31l-227,1l9,23l-8,37H1105z"/>
	</defs>
	<clipPath id="SVGID_1_">
		<use xlink:href="#SVGID_3_"  style="overflow:visible;"/>
	</clipPath>
	<g style="clip-path:url(#SVGID_1_);">
		
			<image style="overflow:visible;" width="1234" height="500" xlink:href="project_schedule.png"  transform="matrix(0.9976 0 0 0.9976 555.0464 64.4738)">
		</image>
	</g>
</g>
<rect x="1233.5" y="189.8" class="st0" width="207.2" height="85.6"/>
<text transform="matrix(1 0 0 1 1233.5049 209.1563)"><tspan x="0" y="0" class="st1 st2 st3">IBPSA Modelica </tspan><tspan x="0" y="32.4" class="st1 st2 st3">Working Group</tspan></text>
<line class="st4" x1="1213" y1="422" x2="1279" y2="422"/>
<line class="st5" x1="1281" y1="396" x2="1281" y2="447"/>
<path class="st6" d="M1280,398"/>
<rect x="1252.3" y="448" class="st0" width="86.7" height="30"/>
<text transform="matrix(1 0 0 1 1252.2871 467.2903)" class="st7 st3">20XX</text>
<rect x="2" y="451" class="st8" width="1200" height="29"/>
<rect x="6.7" y="448" class="st0" width="86.7" height="30"/>
<text transform="matrix(1 0 0 1 6.6913 467.2903)" class="st7 st3">2012</text>
<rect x="119.7" y="448" class="st0" width="86.7" height="30"/>
<text transform="matrix(1 0 0 1 119.6913 467.2903)" class="st7 st3">2013</text>
<rect x="231.7" y="448" class="st0" width="86.7" height="30"/>
<text transform="matrix(1 0 0 1 231.6913 467.2903)" class="st7 st3">2014</text>
<rect x="344.7" y="448" class="st0" width="86.7" height="30"/>
<text transform="matrix(1 0 0 1 344.6913 467.2903)" class="st7 st3">2015</text>
<rect x="455.7" y="448" class="st0" width="86.7" height="30"/>
<text transform="matrix(1 0 0 1 455.6913 467.2903)" class="st7 st3">2016</text>
<rect x="567.7" y="448" class="st0" width="86.7" height="30"/>
<text transform="matrix(1 0 0 1 567.6913 467.2903)" class="st7 st3">2017</text>
<rect x="679.7" y="448" class="st0" width="86.7" height="30"/>
<text transform="matrix(1 0 0 1 679.6913 467.2903)" class="st7 st3">2018</text>
<rect x="790.7" y="448" class="st0" width="86.7" height="30"/>
<text transform="matrix(1 0 0 1 790.6913 467.2903)" class="st7 st3">2019</text>
<rect x="904.7" y="448" class="st0" width="86.7" height="30"/>
<text transform="matrix(1 0 0 1 904.6903 467.2903)" class="st7 st3">2020</text>
<rect x="1017.7" y="448" class="st0" width="86.7" height="30"/>
<text transform="matrix(1 0 0 1 1017.6903 467.2903)" class="st7 st3">2021</text>
<rect x="1128.7" y="448" class="st0" width="86.7" height="30"/>
<text transform="matrix(1 0 0 1 1128.6903 467.2903)" class="st7 st3">2022</text>
</svg>
